<svg width="250" height="250" viewBox="0 0 250 250" fill="none" xmlns="http://www.w3.org/2000/svg">
<path d="M99.5067 17.9416C79.7336 23.0222 61.8436 33.3715 47.7199 47.6725C32.278 63.1024 23.8038 78.156 18.5309 98.8547C13.823 117.295 13.823 132.725 18.5309 151.166C23.8038 171.865 32.278 186.918 47.7199 202.348C81.4284 236.407 130.955 244.498 174.645 223.423C191.97 214.956 215.509 191.434 223.419 174.687C238.86 142.322 238.86 107.322 223.419 75.3334C215.133 58.3981 191.593 34.8769 174.645 26.5974C151.294 15.3072 122.105 11.9202 99.5067 17.9416ZM150.917 25.2802C168.619 29.7963 184.061 38.8285 197.619 52.3767C217.957 72.6991 227.562 95.844 227.562 124.258C227.562 140.252 224.36 159.822 221.912 159.822C216.828 159.822 187.639 135.36 162.216 109.58C133.592 80.7904 131.144 78.7205 123.611 78.156C113.819 77.2151 109.864 79.0968 105.909 86.8118C100.825 96.4085 67.8697 129.15 48.0965 144.015C37.9275 151.73 28.8883 157.94 27.9467 157.94C22.4856 157.94 20.6024 116.543 25.122 98.6665C33.9728 64.7959 64.1034 34.5006 97.8119 25.4684C111.182 21.8932 137.358 21.705 150.917 25.2802ZM152.423 109.769C166.171 124.069 173.892 133.478 171.443 132.725C166.359 131.032 166.359 131.784 171.255 141.193C173.327 145.521 174.645 149.284 174.268 149.849C173.138 150.79 162.404 140.44 150.917 127.268C138.865 113.72 137.17 114.849 137.17 135.924C137.17 151.166 136.605 153.988 133.404 156.999C129.826 160.198 129.449 160.198 121.54 151.542C112.312 141.569 109.864 141.569 104.215 151.73C98.9418 161.515 94.7988 162.456 96.4937 153.424C98.0002 145.144 94.9872 144.392 85.0064 150.601C81.4284 152.859 78.0387 154.177 77.4738 153.424C76.9088 152.859 79.1686 146.462 82.37 139.123C85.7597 131.784 88.2078 124.634 87.6428 123.317C87.0779 122 91.0325 115.79 96.4937 109.392C101.955 103.183 108.358 95.2794 110.429 91.7042C114.007 86.0591 115.325 85.3064 121.916 85.3064C128.884 85.4946 130.579 86.8118 152.423 109.769Z" fill="url(#paint0_linear)"/>
<defs>
<linearGradient id="paint0_linear" x1="125" y1="235" x2="125" y2="15" gradientUnits="userSpaceOnUse">
<stop stop-color="#2D93FC"/>
<stop offset="1" stop-color="#5147FB"/>
</linearGradient>
</defs>
</svg>
